<?xml version="1.0" encoding="utf-8"?>
<svg xmlns="http://www.w3.org/2000/svg" xmlns:xlink="http://www.w3.org/1999/xlink" style="margin: auto; background: rgba(0, 0, 0, 0) none repeat scroll 0% 0%; display: block; shape-rendering: auto;" width="32px" height="32px" viewBox="0 0 100 100" preserveAspectRatio="xMidYMid">
<g transform="rotate(0 50 50)">
  <rect x="43" y="32" rx="6.72" ry="3" width="14" height="6" fill="#ba765d">
    <animate attributeName="opacity" values="1;0" keyTimes="0;1" dur="1.3513513513513513s" begin="-1.2899262899262898s" repeatCount="indefinite"></animate>
  </rect>
</g><g transform="rotate(16.363636363636363 50 50)">
  <rect x="43" y="32" rx="6.72" ry="3" width="14" height="6" fill="#ba765d">
    <animate attributeName="opacity" values="1;0" keyTimes="0;1" dur="1.3513513513513513s" begin="-1.2285012285012284s" repeatCount="indefinite"></animate>
  </rect>
</g><g transform="rotate(32.72727272727273 50 50)">
  <rect x="43" y="32" rx="6.72" ry="3" width="14" height="6" fill="#ba765d">
    <animate attributeName="opacity" values="1;0" keyTimes="0;1" dur="1.3513513513513513s" begin="-1.167076167076167s" repeatCount="indefinite"></animate>
  </rect>
</g><g transform="rotate(49.09090909090909 50 50)">
  <rect x="43" y="32" rx="6.72" ry="3" width="14" height="6" fill="#ba765d">
    <animate attributeName="opacity" values="1;0" keyTimes="0;1" dur="1.3513513513513513s" begin="-1.1056511056511056s" repeatCount="indefinite"></animate>
  </rect>
</g><g transform="rotate(65.45454545454545 50 50)">
  <rect x="43" y="32" rx="6.72" ry="3" width="14" height="6" fill="#ba765d">
    <animate attributeName="opacity" values="1;0" keyTimes="0;1" dur="1.3513513513513513s" begin="-1.0442260442260443s" repeatCount="indefinite"></animate>
  </rect>
</g><g transform="rotate(81.81818181818181 50 50)">
  <rect x="43" y="32" rx="6.72" ry="3" width="14" height="6" fill="#ba765d">
    <animate attributeName="opacity" values="1;0" keyTimes="0;1" dur="1.3513513513513513s" begin="-0.9828009828009827s" repeatCount="indefinite"></animate>
  </rect>
</g><g transform="rotate(98.18181818181819 50 50)">
  <rect x="43" y="32" rx="6.72" ry="3" width="14" height="6" fill="#ba765d">
    <animate attributeName="opacity" values="1;0" keyTimes="0;1" dur="1.3513513513513513s" begin="-0.9213759213759213s" repeatCount="indefinite"></animate>
  </rect>
</g><g transform="rotate(114.54545454545455 50 50)">
  <rect x="43" y="32" rx="6.72" ry="3" width="14" height="6" fill="#ba765d">
    <animate attributeName="opacity" values="1;0" keyTimes="0;1" dur="1.3513513513513513s" begin="-0.8599508599508598s" repeatCount="indefinite"></animate>
  </rect>
</g><g transform="rotate(130.9090909090909 50 50)">
  <rect x="43" y="32" rx="6.72" ry="3" width="14" height="6" fill="#ba765d">
    <animate attributeName="opacity" values="1;0" keyTimes="0;1" dur="1.3513513513513513s" begin="-0.7985257985257985s" repeatCount="indefinite"></animate>
  </rect>
</g><g transform="rotate(147.27272727272728 50 50)">
  <rect x="43" y="32" rx="6.72" ry="3" width="14" height="6" fill="#ba765d">
    <animate attributeName="opacity" values="1;0" keyTimes="0;1" dur="1.3513513513513513s" begin="-0.7371007371007371s" repeatCount="indefinite"></animate>
  </rect>
</g><g transform="rotate(163.63636363636363 50 50)">
  <rect x="43" y="32" rx="6.72" ry="3" width="14" height="6" fill="#ba765d">
    <animate attributeName="opacity" values="1;0" keyTimes="0;1" dur="1.3513513513513513s" begin="-0.6756756756756757s" repeatCount="indefinite"></animate>
  </rect>
</g><g transform="rotate(180 50 50)">
  <rect x="43" y="32" rx="6.72" ry="3" width="14" height="6" fill="#ba765d">
    <animate attributeName="opacity" values="1;0" keyTimes="0;1" dur="1.3513513513513513s" begin="-0.6142506142506142s" repeatCount="indefinite"></animate>
  </rect>
</g><g transform="rotate(196.36363636363637 50 50)">
  <rect x="43" y="32" rx="6.72" ry="3" width="14" height="6" fill="#ba765d">
    <animate attributeName="opacity" values="1;0" keyTimes="0;1" dur="1.3513513513513513s" begin="-0.5528255528255528s" repeatCount="indefinite"></animate>
  </rect>
</g><g transform="rotate(212.72727272727272 50 50)">
  <rect x="43" y="32" rx="6.72" ry="3" width="14" height="6" fill="#ba765d">
    <animate attributeName="opacity" values="1;0" keyTimes="0;1" dur="1.3513513513513513s" begin="-0.49140049140049136s" repeatCount="indefinite"></animate>
  </rect>
</g><g transform="rotate(229.0909090909091 50 50)">
  <rect x="43" y="32" rx="6.72" ry="3" width="14" height="6" fill="#ba765d">
    <animate attributeName="opacity" values="1;0" keyTimes="0;1" dur="1.3513513513513513s" begin="-0.4299754299754299s" repeatCount="indefinite"></animate>
  </rect>
</g><g transform="rotate(245.45454545454547 50 50)">
  <rect x="43" y="32" rx="6.72" ry="3" width="14" height="6" fill="#ba765d">
    <animate attributeName="opacity" values="1;0" keyTimes="0;1" dur="1.3513513513513513s" begin="-0.36855036855036855s" repeatCount="indefinite"></animate>
  </rect>
</g><g transform="rotate(261.8181818181818 50 50)">
  <rect x="43" y="32" rx="6.72" ry="3" width="14" height="6" fill="#ba765d">
    <animate attributeName="opacity" values="1;0" keyTimes="0;1" dur="1.3513513513513513s" begin="-0.3071253071253071s" repeatCount="indefinite"></animate>
  </rect>
</g><g transform="rotate(278.1818181818182 50 50)">
  <rect x="43" y="32" rx="6.72" ry="3" width="14" height="6" fill="#ba765d">
    <animate attributeName="opacity" values="1;0" keyTimes="0;1" dur="1.3513513513513513s" begin="-0.24570024570024568s" repeatCount="indefinite"></animate>
  </rect>
</g><g transform="rotate(294.54545454545456 50 50)">
  <rect x="43" y="32" rx="6.72" ry="3" width="14" height="6" fill="#ba765d">
    <animate attributeName="opacity" values="1;0" keyTimes="0;1" dur="1.3513513513513513s" begin="-0.18427518427518427s" repeatCount="indefinite"></animate>
  </rect>
</g><g transform="rotate(310.90909090909093 50 50)">
  <rect x="43" y="32" rx="6.72" ry="3" width="14" height="6" fill="#ba765d">
    <animate attributeName="opacity" values="1;0" keyTimes="0;1" dur="1.3513513513513513s" begin="-0.12285012285012284s" repeatCount="indefinite"></animate>
  </rect>
</g><g transform="rotate(327.27272727272725 50 50)">
  <rect x="43" y="32" rx="6.72" ry="3" width="14" height="6" fill="#ba765d">
    <animate attributeName="opacity" values="1;0" keyTimes="0;1" dur="1.3513513513513513s" begin="-0.06142506142506142s" repeatCount="indefinite"></animate>
  </rect>
</g><g transform="rotate(343.6363636363636 50 50)">
  <rect x="43" y="32" rx="6.72" ry="3" width="14" height="6" fill="#ba765d">
    <animate attributeName="opacity" values="1;0" keyTimes="0;1" dur="1.3513513513513513s" begin="0s" repeatCount="indefinite"></animate>
  </rect>
</g>
<!-- [ldio] generated by https://loading.io/ --></svg>